<svg xmlns="http://www.w3.org/2000/svg" viewBox="0 0 500 500"><path fill="#007579" fill-rule="evenodd" d="M447.992 0H52.5C23.5 0 0 23.5 0 52.5V447c0 29.5 23.5 53 52.5 53h394.992c28.5 0 52.5-23.5 52.5-52.5v-395c.5-29-23-52.5-52-52.5Z"/><g fill="#fff"><path d="M359.041 216.95c-15.386-48.264-60.064-81.16-110.72-81.527-42.548-.241-81.746 23.05-101.875 60.533-65.643 11.752-93.949 90.159-50.95 141.131a86.617 86.617 0 0 0 30.037 22.855l2.187 1.012h.121v-24.638c-42.439-26.042-40.772-88.262 3.001-111.995a64.71 64.71 0 0 1 23.945-7.452l6.074-.627 2.652-5.547c15.493-32.754 48.575-53.547 84.807-53.306 43.51.299 81.232 30.174 91.488 72.458l2.025 8.32 8.563.142c29.16.616 52.513 24.363 52.638 53.528 0 20.468-11.803 37.17-31.825 45.653v23.383l1.437-.485C404.937 349.84 425 323.562 425 291.838c-.179-37.94-28.347-69.92-65.959-74.888Z"/><path d="m205.805 358.12 4.819 4.818a.953.953 0 0 1-.689 1.64h-37.98c-9.545.012-17.289-7.723-17.289-17.269v-73.935a.953.953 0 0 0-.952-.952h-8.24a.972.972 0 0 1-.688-1.64l32.25-32.23a.933.933 0 0 1 1.357 0l32.23 32.23a.953.953 0 0 1-.688 1.64h-8.24a.951.951 0 0 0-.951.952v72.599a17.265 17.265 0 0 0 5.061 12.147Zm71.263 0 4.819 4.818a.953.953 0 0 1-.689 1.64h-38.06c-9.546.012-17.29-7.723-17.29-17.269v-55.35a.952.952 0 0 0-.951-.972h-8.078a.972.972 0 0 1-.689-1.64l32.17-32.23a.933.933 0 0 1 1.356 0l32.23 32.17a.953.953 0 0 1-.688 1.64h-8.24a.952.952 0 0 0-.95.971v54.075a17.265 17.265 0 0 0 5.06 12.147Zm71.344 0 4.819 4.818a.951.951 0 0 1-.668 1.64H314.48c-9.54 0-17.277-7.728-17.289-17.269v-36.785a.953.953 0 0 0-.951-.952H288a.95.95 0 0 1-.668-1.64l32.23-32.25a.972.972 0 0 1 1.356 0l32.23 32.25a.952.952 0 0 1-.688 1.6h-8.26a.951.951 0 0 0-.951.951v35.49a17.265 17.265 0 0 0 5.162 12.147Z"/></g></svg>